# xmcd
#
# Track frame offsets: 
#        150
#        12011
#        26398
#        31468
#        42112
#        48142
#        58737
#        66913
#        75206
#        80596
#        93150
#        105587
#        111150
#        119550
#        131250
#        143602
#        152100
#        157276
#        167416
#        173008
#        179884
#        191669
#        203128
#        210235
#        222145
#        229420
#        239596
#        249457
#        255113
#        266290
#        272947
#        284380
#        289828
#        297897
#        304893
#        316877
#        321412
#        335352
#
# Disc length: 4526 seconds
#
# Revision: 0
# Processed by: cddbd v1.5.2PL0 Copyright (c) Steve Scherf et al.
# Submitted via: ExactAudioCopy v0.99pb5
#
DISCID=1e11ac26
DTITLE=Chet Atkins with the Carter Sisters and Mother Maybelle - Chet 
DTITLE=Atkins with the Carter Sisters and Mother Maybelle
DYEAR=1949
DGENRE=Country
TTITLE0=No Vacancy
TTITLE1=Today
TTITLE2='Deed I Do
TTITLE3=Deaf Woman's Courtship
TTITLE4=In The Pines
TTITLE5=Eight More Miles To Louisville
TTITLE6=Ain't It Hard to Love
TTITLE7=No Tears In Heaven
TTITLE8=She's Killing Me
TTITLE9=I'm Fading Fast with the Tide
TTITLE10=Blue Eyes Cryin' In the Rain
TTITLE11=Carry Me Back To Old Virginny
TTITLE12=Lord Lead Me On
TTITLE13=Columbus Stockade Blues
TTITLE14=Under the Hickory Nut Tree
TTITLE15=When God Dips His Love in My Heart
TTITLE16=What's the Use
TTITLE17=Keep on the Sunny Side
TTITLE18=In The Pines
TTITLE19=Take Me Back To Tulsa
TTITLE20=You Belong To Me
TTITLE21=Meeting In The Air
TTITLE22=Frankie and Johnny
TTITLE23=Farther Along
TTITLE24=I'll Be Thinking of You Little Girl
TTITLE25=It's Raining Here This Morning
TTITLE26=Honey Be My Honey Bee
TTITLE27=It Makes No Never Mind
TTITLE28=Rose Of The Alamo
TTITLE29=Miss Molly
TTITLE30=Another Broken Heart
TTITLE31=Spanish Two Step
TTITLE32=New Streamliner
TTITLE33=I'll Never Wear a Pair of Shoes
TTITLE34=Someone'S Last Day
TTITLE35=Ida Sweet as Apple Cider
TTITLE36=Petal From a Faded Rose
TTITLE37=In The Pines
EXTD=
EXTT0=
EXTT1=
EXTT2=
EXTT3=
EXTT4=
EXTT5=
EXTT6=
EXTT7=
EXTT8=
EXTT9=
EXTT10=
EXTT11=
EXTT12=
EXTT13=
EXTT14=
EXTT15=
EXTT16=
EXTT17=
EXTT18=
EXTT19=
EXTT20=
EXTT21=
EXTT22=
EXTT23=
EXTT24=
EXTT25=
EXTT26=
EXTT27=
EXTT28=
EXTT29=
EXTT30=
EXTT31=
EXTT32=
EXTT33=
EXTT34=
EXTT35=
EXTT36=
EXTT37=
PLAYORDER=
